<?xml version="1.0" encoding="utf-8"?>
<!-- Generator: Adobe Illustrator 16.0.0, SVG Export Plug-In . SVG Version: 6.00 Build 0)  -->
<!DOCTYPE svg PUBLIC "-//W3C//DTD SVG 1.1//EN" "http://www.w3.org/Graphics/SVG/1.1/DTD/svg11.dtd">
<svg version="1.1" id="레이어_1" xmlns="http://www.w3.org/2000/svg" xmlns:xlink="http://www.w3.org/1999/xlink" x="0px"
	 y="0px" width="50px" height="50px" viewBox="0 0 50 50" enable-background="new 0 0 50 50" xml:space="preserve">
<path fill="#8276F4" d="M43.948,40.285L33.817,30.156c1.99-2.657,3.185-5.941,3.185-9.507c0-8.768-7.133-15.902-15.9-15.902
	C12.333,4.747,5.2,11.881,5.2,20.649s7.133,15.902,15.902,15.902c3.101,0,5.987-0.906,8.435-2.447L39.833,44.4
	c0.568,0.568,1.313,0.852,2.058,0.852c0.744,0,1.488-0.283,2.058-0.852C45.084,43.266,45.084,41.421,43.948,40.285z M11.02,20.649
	c0-5.559,4.523-10.082,10.082-10.082c5.559,0,10.081,4.522,10.081,10.082c0,5.558-4.522,10.081-10.081,10.081
	C15.542,30.729,11.02,26.207,11.02,20.649z"/>
</svg>
