<?xml version="1.0" encoding="utf-8"?>
<!-- Generator: Adobe Illustrator 16.0.0, SVG Export Plug-In . SVG Version: 6.00 Build 0)  -->
<!DOCTYPE svg PUBLIC "-//W3C//DTD SVG 1.1//EN" "http://www.w3.org/Graphics/SVG/1.1/DTD/svg11.dtd">
<svg version="1.1" id="레이어_2" xmlns="http://www.w3.org/2000/svg" xmlns:xlink="http://www.w3.org/1999/xlink" x="0px"
	 y="0px" width="50px" height="50px" viewBox="0 0 50 50" enable-background="new 0 0 50 50" xml:space="preserve">
<path fill="#8276F4" d="M13.542,8.959c0-1.268,1.024-2.292,2.292-2.292c1.267,0,2.292,1.024,2.292,2.292v14.896h-4.583V8.959z
	 M27.292,20.417c0-1.268,1.024-2.292,2.291-2.292s2.292,1.024,2.292,2.292V25c0,1.267-1.025,2.292-2.292,2.292
	S27.292,26.267,27.292,25V20.417z M22.708,15.834c1.267,0,2.292,1.023,2.292,2.291v3.438c0,1.267-1.024,2.292-2.292,2.292
	c-1.268,0-2.292-1.025-2.292-2.292v-3.438C20.417,16.857,21.441,15.834,22.708,15.834z M34.167,22.709
	c0-1.267,1.024-2.292,2.291-2.292s2.292,1.025,2.292,2.292v4.583c0,1.267-1.025,2.291-2.292,2.291s-2.291-1.024-2.291-2.291V22.709z
	 M27.292,29.011v-0.044c0.673,0.389,1.454,0.616,2.291,0.616c0.944,0,1.819-0.286,2.55-0.774c0.624,1.785,2.328,3.066,4.325,3.066
	c0.837,0,1.619-0.223,2.292-0.616v0.616c0,6.33-5.128,11.458-11.458,11.458h-4.419c-3.036,0-5.951-1.21-8.1-3.358l-0.838-0.831
	c-1.719-1.719-2.686-4.054-2.686-6.48v-1.934c0-2.529,2.055-4.584,4.583-4.584h6.302c1.583,0,2.865,1.282,2.865,2.865
	s-1.282,2.864-2.865,2.864h-4.01c-0.63,0-1.146,0.515-1.146,1.146c0,0.632,0.516,1.146,1.146,1.146h4.01
	C24.986,34.167,27.292,31.861,27.292,29.011z"/>
</svg>
