<?xml version="1.0" encoding="utf-8"?>
<!-- Generator: Adobe Illustrator 16.0.0, SVG Export Plug-In . SVG Version: 6.00 Build 0)  -->
<!DOCTYPE svg PUBLIC "-//W3C//DTD SVG 1.1//EN" "http://www.w3.org/Graphics/SVG/1.1/DTD/svg11.dtd">
<svg version="1.1" id="레이어_2" xmlns="http://www.w3.org/2000/svg" xmlns:xlink="http://www.w3.org/1999/xlink" x="0px"
	 y="0px" width="50px" height="50px" viewBox="0 0 50 50" enable-background="new 0 0 50 50" xml:space="preserve">
<path fill="#8276F4" d="M25,11.699c-8.018,0-14.632,6.001-15.6,13.754C10.111,25.166,10.883,25,11.698,25
	c2.003,0,3.628,1.625,3.628,3.628v9.673c0,2.003-1.625,3.628-3.628,3.628c-3.341,0-6.046-2.705-6.046-6.046v-1.208v-3.629v-3.628
	c0-10.686,8.66-19.347,19.348-19.347c10.687,0,19.348,8.661,19.348,19.347v3.628v3.629v1.208c0,3.341-2.707,6.046-6.047,6.046
	c-2.001,0-3.626-1.625-3.626-3.628v-9.673c0-2.003,1.625-3.628,3.626-3.628c0.817,0,1.588,0.159,2.299,0.453
	C39.631,17.7,33.019,11.699,25,11.699z"/>
</svg>
